<?xml version="1.0" encoding="utf-8"?>
<!-- Generator: Adobe Illustrator 18.0.0, SVG Export Plug-In . SVG Version: 6.00 Build 0)  -->
<!DOCTYPE svg PUBLIC "-//W3C//DTD SVG 1.1//EN" "http://www.w3.org/Graphics/SVG/1.1/DTD/svg11.dtd">
<svg version="1.1" id="Layer_1" xmlns="http://www.w3.org/2000/svg" xmlns:xlink="http://www.w3.org/1999/xlink" x="0px" y="0px"
	 viewBox="0 0 1400 980" enable-background="new 0 0 1400 980" xml:space="preserve">
<g>
	<rect fill="#FFFFFF" width="1400" height="980"/>
	<g>
		<path d="M284,306.1c0,0-23.6,12.8-60.4,23.9c0,0-15.8,4.4-15.3,14c0,0,3.9,19.9-0.9,42.9c0,0-1.8,12.8-1.5,26c0,0,4.6-1.7,2.4,9.6
			c0,0,2.8,8.2,2.4,16.3c-0.1,2.8-2.1,5.2-4.8,5.9c-3,0.8-7.8,1.8-14.7,2.4c0,0-11.2,0.2-18.4,3.3c0,0-18.7,5.7-23.2,0
			c0,0-8-8.1,15.5-13c0,0,11.2-8.1,13.7-12.8c0,0-1.7-15.2,7.2-13c0,0,0.8-16.3-1.5-28.6c0,0-3.3-21.1-2.5-37.5c0,0-6.3-21.6,5-30.1
			c0,0,46.6-33.7,64.4-41.1c0,0-4.8-8.6-7.4-17.9c0,0-8.7-14.3-14.2-35.1c0,0-8.8-3.9-12.1-15.5l-20.9-21.4l-4.3-2.1
			c0,0-8-3.7-11.5-14.7c0,0-3.3-5.5-6.1-7.7c0,0-1.8-2.1-0.6-3.2c0,0,1.2-1.5,3.2,0.5l6.4,7.6l-6.9-12.6c0,0-1.1-2.7,0.3-3.3
			c0,0,1.4-0.8,3,1.5l5.8,8.3l-6.1-11.9c0,0-0.8-1.2,0.5-3c0,0,1.4-0.7,2.8,1.2l7,13.2c0,0-0.1-7.5-2.9-12.7c0,0-0.6-1.6,0.5-2.9
			c0,0,1.9-1.5,2.9,2.5c0,0,3.7,6.3,4,10.4c0,0,4.2-2.3,1.4,7.3c0,0,3.9,6.9,4.7,11.6c0,0,8.2,8.6,20.3,16.4
			c0,0,10.4-21.1,20.4-31.6c0,0,1.4-15.4,1.9-27.1c0,0-2.8-8.2-0.3-14.2c0,0-6.7-3.9-0.7-18.2c0,0,3.5-8.1-7.9-4
			c-1.7,0.6-3.3,1.5-4.8,2.5c-3.3,2.2-12.2,6.2-23-3.6c0,0,12.5,7.8,21.4,2c1.8-1.2,3.6-2.3,5.6-3.1c3.9-1.6,9.5-2.9,10.6,1
			c0,0,2.3-11-8.9-9.9c0,0-3.1,0.7-9.5,3.6c0,0-9,3.3-15.4,0.3c0,0,10.5,1,22.9-5.8c0,0,14.9-7.9,18.7,6c0,0,16.7-22.9-16.9-50.9
			c0,0,19.1,6.7,26.6,35.2c0,0-1-25.4-11.5-40.3c0,0,25.3,19.5,17,54.2c0,0,24.3-12.8,8-50.4c0,0,11.5,12.6,8.8,31.9
			c0,0,9.3-15.4,5.8-32.4c0,0,8.5,13.9-3.3,43.7c0,0,13.3-4.4,11.5-33.7c0,0,6,29.3-5,46c0,0,24.6-7.7,13.5-48.8
			c0,0,11.5,24.4,4,41.4c0,0,7.8-8.5,7.5-17c0,0,3.3,22.9-15.5,39.3c0,0,14-0.8,18.8-16.4c0,0-1,18.5-21.1,32.9
			c0,0-2,20.8-20.6,25.7c0,0-6.3,4.9,4.5,7.7c0,0,16.5,7.1,23.2,24.8c0,0,2.3,5.8,5.5,7.9c0,0,12.9,9.6,15,14.7
			c0,0,9.2,2.6,11.7-20.9c0,0-1.3-5.3-1-10.8l-3.8-7.9c0,0-4.2-4.5-2.8-9.3c0,0,2.2-2.6,5.4,4c0,0,2.8,7.1,5.3,8.5
			c0,0,6.8,3.1,3.6-14c0,0-4.5-8.9-2-10c0,0,2-1,4,3.9c0,0,0.1-8,4.4,1.9c0,0,2.6-5.3,3.8,8.2c0,0,5.3-4.4,2.6,15
			c0,0-1.6,8.5-6.6,15.7c0,0-1.8,2.7-4.6,13.6c0,0-5.5,17-12.5,22.2c0,0-4.1,4.8-8.8,0.6c0,0-26.3-20.9-35.4-34.3l-6.5,6.8
			c0,0-4.2,13.2-3.5,20.7c0,0-0.8,21.2,14.4,32.4c0,0,3.7,2.2,4.2,5.1c0,0,14.9,6.2,20.9,27.8c0,0,9.7,19.2,21.1,68.2
			c0,0,0.7,14.7,14.7,15.1c0,0,14.5-5.9,49.1,19c0,0,8.8-5.4,12.8,4.4l5.8,6.9c0,0,9,6.7,0,14.9c0,0-2.8,4.5-5.5,10.7
			c-4.7,10.7-16,17.1-27.2,14.6c-0.2,0-0.4-0.1-0.5-0.1c-0.7-0.2-1.5-0.6-1.9-1.2c-1-1.5-1.2-4.5,5.3-9.8c0,0,11.3-17,2.8-24.7
			c0,0-19.8-8.7-49.6-12.8c0,0-20.1,3.3-31.6-22.9L298,324C298,324,291.8,311.2,284,306.1z"/>
		<g>
			<path d="M638.3,78.9c-0.1-1.1-0.3-2.1-0.6-3.1C637.7,75.8,638,77,638.3,78.9z"/>
			<path d="M669.4,211.7c-23.1-5.5-27-20.9-27-20.9c8.7,13.5,23.4,15.8,23.4,15.8c15.3,4,19.4,20.2,19.4,20.2
				c0-18.4-15.9-23.2-15.9-23.2c-37.1-18.9-26.6-34.8-26.6-34.8c11.6-22.3-2-28.2-2-28.2c4.1-5.9,2-15.3,2-15.3
				c32.6-26,12.1-58.3,12.1-58.3c4.6,17.3-2.5,31.9-2.5,31.9c3-14.3-5.9-25-5.9-25c4.6,28.5-11.4,36-11.4,36
				c5.9-9.6,4.5-24.4,3.5-30.8c0.7,9.3-6.3,19.9-6.3,19.9c4.1-25.5-13.2-39.4-13.2-39.4c13.4,28.2,0,47.3,0,47.3
				c-2.1-13.4-17.8-15-17.8-15c12.8,7.9,9.4,16.8,9.4,16.8c-7.4,0-13.5,6.8-13.5,6.8c-12.3,10.5-5.3,20.3-5.3,20.3
				c-7.2,7-10.4,21.8-11.5,27.5c0.5-6-0.8-16.7-0.8-16.7c2-8.7,5.5-24.6,5.5-24.6c8.5-8,9.4-23.1,9.4-23.1c1.1-9.1,8-26.2,8-26.2
				c2.6-8.8,4.9-15.3,4.9-15.3c7.5-7.7,1.6-6.5,1.6-6.5c5-9.9,2.7-10.7,2.7-10.7c-2.1-1.1-4,2.4-4,2.4C607.7,41,607,40,607,40
				c-3.5-2.5-3.9,1.4-3.9,1.4c0.5,6.1-4,10.6-4,10.6l0.8-7.3c0.5-4-1-4.5-1-4.5c-2.1-0.8-2.9,1-2.9,1v4.3c0,9.4-2.6,7.7-2.6,7.7
				s-1-3.9-1.2-5.6c-0.2-1.7-1-2.9-2.3-2.2c-1.3,0.7-1,2.7-1,2.7l1,6c-0.4,5.6-0.1,9.9-0.1,9.9c0.8,10.2-6.4,24.4-6.4,24.4
				c-7.7,13.5-10.6,26-10.6,26l-1.8,4.1c-8.7,15.5-12.4,40-12.4,40c-0.3,11.1-6.5,35.2-6.5,35.2c-12.1,23.7,6.4,38.3,6.4,38.3
				c10.6,16.5,6,42,6,42c-3,3-2.3,11.8-2.3,11.8c-4.1-0.5-4.9,6.1-4.9,6.1l-44.6,29.3c-13.1,5.6-10.7,18.5-10.7,18.5
				c0.6,5.2-0.3,14.2-0.3,14.2c-4.1,24.6,1,24.8,1,24.8c3.3,17.3-2.2,34.3-2.2,34.3c-12.8,1-5.7,11.7-5.7,11.7
				c-2.7,3.6-4.4,10.1-4.4,10.1c-1,4.1-7.7,8-7.7,8c-6.1,3.9-2.2,9.3-2.2,9.3c6.8,1.8,17.2-1.2,17.2-1.2
				c43.7-15.6,35.8-18.8,35.8-18.8l-2-3.6c-0.3-3.9-5.5-13.4-5.5-13.4l1.1-5.3c2.3-6.1,0.8-13.2,0.8-13.2
				c2.7-13.4,6.5-18.8,6.5-18.8c8.2,0,9-11.1,9-11.1c14.9-23.1,45.8-41.9,45.8-41.9c12.4,6.9,20.6,44.1,20.6,44.1
				c2.3,16.2,7.5,25.5,7.5,25.5c11.2,25.5,18.6,20.1,18.6,20.1l10.1,21.6l-1.1,9.6c-4.6,8,7.3,7.1,7.3,7.1
				c15.6,0.2,14.4-3.4,14.4-3.4l2-7.1c2-8.2-4.3-17.9-4.3-17.9L658,400c2-9.3-5.9-13.9-5.9-13.9c0.9-8.9-12.5-33-12.5-33
				c3.9-26.9,1.4-55.3,1.4-55.3c0.9-25.3-11.5-38.3-11.5-38.3c22.1-6.4,34.6-18.4,34.6-18.4c3.6-4.8-1.8-10.2-1.8-10.2
				c-4.1-7.3-16.4-16.5-16.4-16.5c21.7,5.3,26.6,20.5,26.6,20.5c-0.5-14.1-17.5-22-17.5-22c10.3,3,16.2,5.6,16.2,5.6
				c9.9,5.2,7.7,19.7,7.7,19.7C686.2,216.7,669.4,211.7,669.4,211.7z M644.4,237.1l-7.5,5.6c-11.3,7.7-12.6,5.3-12.6,5.3
				c-1.2-2.3-5.2-5.9-5.2-5.9c-2-1.7-3.6-4.3-3.6-4.3c-1.8-3.8-8.8-6.2-8.8-6.2c-2-6.7,1.8-12.3,4.4-15.1c1.4-1.5,3.5-2,5.4-1.4
				c3.7,1.3,7.2,4.2,7.2,4.2l17.8,13.2C646.7,235.9,644.4,237.1,644.4,237.1z"/>
		</g>
		<path d="M977.8,435.5c-3.1-3.6-4.6-15.9-4.6-15.9c-0.6-10.1-9.1-16.1-9.1-16.1c-6.6-3.1-10.9-17.8-10.9-17.8
			c-6.6-26.4-22.7-40.8-22.7-40.8c-14.6-6.5-13.8-31.7-13.8-31.7c1.2-39.8-7.3-68.4-7.3-68.4c8.3-8.9,3.4-15.6,3.4-15.6
			c2.6-11.7,1.5-23,1.5-23c-1.2-8.3-0.5-11.3-0.5-11.3l15.5-47.8c0.7,7.4,12.4,7.6,12.4,7.6c-10-3.8-8.3-17.4-8.3-17.4
			c3.4,9.8,10.7,10.4,10.7,10.4c-6.5-4.1-4.8-11.2-4.8-11.2c1.9-6.5-3.1-12.9-3.1-12.9c2.2-3.1,0.6-7.9,0.6-7.9
			c9,4.2,10.2,14,10.2,14c0.8-9.4-5.8-16.8-5.8-16.8c1.8-8-3.9-13.9-3.9-13.9c22.1,0.9,27.3-13.7,27.3-13.7
			c-6.8,7.6-13.8,3.2-13.8,3.2c-4.6-5.5-18.7-8.3-18.7-8.3c8.9-0.2,11.5-9.3,11.5-9.3c-3.6,5.9-11.3,4-11.3,4c6.8-1.4,8-8.4,8-8.4
			c-7.1,9-13.5,0.1-13.5,0.1c6.6,1.2,7.1-3.1,7.1-3.1c2.4-4.9,9-5.2,9-5.2c-4.6-1.6-9,1-9,1c-1.3-0.8-6.8-0.8-6.8-0.8l2.3-1.4
			c18.7-4.3,11.1-15.9,11.1-15.9c1.7,9.1-5.6,9.4-5.6,9.4c-14,0-15.1,5.9-15.1,5.9c-3.4,8.8-8.3,4.7-8.3,4.7
			c-7.2-3.5-12.9-0.1-12.9-0.1c-1.7-3.3,3.2-6.8,3.2-6.8c-7.1,0.6-7.4,6.3-7.4,6.3c-3.1-1.8,0-6.3,0-6.3c-6.3,2.6-3.9,7.3-3.9,7.3
			c-15.3-2.8-22.4,9.6-22.4,9.6C861.2,82,855,84.5,855,84.5c4.3,0.2,5.2-0.5,5.2-0.5l-0.8,2.2c-1.7,1.4-2.7,5.5-2.7,5.5
			c-0.5-3.5-4.3-2.4-4.3-2.4c-1.9-1.1-4.4,0.5-4.4,0.5c-3.1-0.9-6.1,1.1-6.1,1.1c-6.3,0.2-5.3,5.4-5.3,5.4l1.6,6.7
			c1.9,9.1,7.6,16.7,7.6,16.7c4.1,7.5,6.4,26.6,6.4,26.6c-6.9,3-26.2,12.6-26.2,12.6c-1.8-1.5-10-5.2-10-5.2
			c-17.9-8.4-26.4-20.3-26.4-20.3c0.7-8.5-4.3-8.9-4.3-8.9l-2.8-1c-5.6-7.6-7.9-1.7-7.9-1.7c-3.8-0.6-4.4,2.7-4.4,2.7
			c-4.3,0.2-3.3,4.1-3.3,4.1l-1.4,0c-7-0.3-6.4,2.4-6.4,2.4c0.5,1,1.4,1,1.4,1c4.3-0.7,7.1,1.8,7.1,1.8s8.3,6.2,12.4,7.5
			s7.7,5.8,7.7,5.8c10.2,14,29.9,30.1,29.9,30.1c3.5,4.3,8.9,1.8,8.9,1.8c13.5-3.6,24.4-8.9,24.4-8.9c8.8-5.2,8.5-0.7,8.5-0.7
			c-1.1,16.5-8.4,24.6-8.4,24.6l-22.5,14.5c-4.9,2.3-1.4,4.3-1.4,4.3l9.7,8.2c-20,17.1-17.1,60.8-17.1,60.8
			c1.2,32.2-4.7,56.9-4.7,56.9c-1.6,2.6-2.4,8.7-2.4,8.7c-5.5,18.2-3.5,71.4-3.5,71.4c-3.9,2-5.7,9.2-5.7,9.2
			c-1.7,6.1-6.4,11.4-6.4,11.4c-4.8,3.8-2.5,10.2-2.5,10.2c2,4.7,13.8,2.8,13.8,2.8c15.3-3.6,9.7-7.1,9.7-7.1l0.5-2
			c7.4-3.2,7.8-5.6,7.8-5.6c1.7-2.9-0.1-5.5-0.1-5.5c1-7.1-2.7-12.5-2.7-12.5c1-20.9,6.6-34.3,6.6-34.3c5.2-9.3,5.8-20.8,5.8-20.8
			c0.6-11.8,4.2-20.8,4.2-20.8c3.3-4.8,5.5-13,5.5-13c5.2-23.7,19.4-62.6,19.4-62.6c3.3-7.1,5.7,6.1,5.7,6.1
			c3.9,24.6,19.8,65.4,19.8,65.4c5.6,11.7,24.6,26.3,24.6,26.3c4.6,9.9,18.4,21.3,18.4,21.3c9.3,8.8,17.2,26.3,17.2,26.3
			c-3.6,1.8,0.1,5.8,0.1,5.8c4.8,8.8,4,16.8,4,16.8c-4.3,15.4,11.4,12.5,11.4,12.5C984.1,447,977.8,435.5,977.8,435.5z M841.7,98.4
			H841c-2.5-3.6,0.7-5.5,0.7-5.5C842.1,94.8,841.7,98.4,841.7,98.4z M883.4,129.4c-10.6-0.5-18.9,6.3-18.9,6.3
			c-3.6-6.4-6.6-20.6-6.6-20.6c1.9-4.6,1.9-12,1.9-12c9,2,9.1,17.5,9.1,17.5c6.2,5.9,16.2,1.9,16.2,1.9l0.6,2.8L883.4,129.4z"/>
		<path d="M1249,440.3c-3.1-3.8-6-13.5-6-13.5c0-7.7-7.8-9.6-7.8-9.6c0.6-34.5-1.8-51.3-1.8-51.3c9.1-15.6,2.7-26.3,2.7-26.3
			c5.6-21-7.1-39-7.1-39c-8-60.5-25.5-82-25.5-82c-10.2-9.3-27.3-37.6-27.3-37.6c7.5-1.5,7.7-8.4,7.7-8.4l4,3.2
			c8.5,9.8,18,11.6,18,11.6c11.8,2,13.4-4.1,13.4-4.1l1.4-4c4.9-16.2,4.8-48.5,4.8-48.5c-0.1-9,2.2-17.7,2.2-17.7
			c2.4-4,1.8-6.8,1.8-6.8c0-6.6-7.6-13.1-7.6-13.1c17.1-2.4,19.2-18.6,19.2-18.6c-2.2,5-7.8,5.6-7.8,5.6c8-8,1.9-15.9,1.9-15.9
			c1.2,13-8.8,14.6-8.8,14.6c-23.2,2.9-24.1-13.8-24.1-13.8c4.5,4.4,15.4,3.5,15.4,3.5c5.5-0.6,8.6,3.1,8.6,3.1
			c-1.3-6.5-7.3-6-7.3-6c-10.1,1.4-11.5-3.4-11.5-3.4c18.1-1.7,24.1-11.5,24.1-11.5c-5.9,6.8-17.9,4.6-17.9,4.6
			c4-5.8,9.4-6.9,9.4-6.9c21.9-8.2,15.3-23.9,15.3-23.9c0,13.9-10.6,17.7-10.6,17.7c-13.1,1.5-21.7,8.2-21.7,8.2
			c-7.5-2.7-14.4-1.5-14.4-1.5c27-18.1,0.1-28.4,0.1-28.4c18.6,14.5-1.6,22.6-1.6,22.6c-14.5,1.5-13.4,7.8-13.4,7.8
			c-3.1-2.8-1.3-8.6-1.3-8.6c9.6-18.9-7.3-18-7.3-18c13.6,5.9,4,15,4,15c-5.5,3.2-6.9,7.5-6.9,7.5c-3-11.2-18-12.2-18-12.2
			c10.8,5,8.7,18.9,8.7,18.9c-4.7-13.4-18.4-9-18.4-9c14.7,3.7,8.6,13.1,8.6,13.1c-1.8,7.7,2.4,9.9,2.4,9.9
			c-8.1,1.6-18.1,11.5-18.1,11.5c4.3-1.5,6.5,1.3,6.5,1.3c-9.1,1.3-14.5,6.8-14.5,6.8c7.4-0.9,11.5,0.7,11.5,0.7
			c-10.9,1-17.5,7.9-17.5,7.9c10.2-0.8,9.5,4.1,9.5,4.1c-20.7,3.5-33.3,21-33.3,21l-21,9.7c-3.4-4.4-15.9-16.4-15.9-16.4
			c-9.6-9.7-14.9-25.5-14.9-25.5c1.9-9.4-1.6-14.3-1.6-14.3l-2.8-3.5c-4.7-5.8-4.3,1.3-4.3,1.3c-1.3,0-3.1,1.2-3.1,1.2
			c-1.9,0-3,1.9-3,1.9c-2.1,0.1-4,2.4-4,2.4c-3.7,1.6-1.4,7.2-1.4,7.2c3.5,10.6,8.3,11.1,8.3,11.1l6.8,12
			c8.9,19.5,24.3,37.6,24.3,37.6c5.5,5.6,13.6,4.1,13.6,4.1c20.8-2.1,30.4-8.9,30.4-8.9c8.7-7.2,8.6-2.2,8.6-2.2
			c-5.6,27.7,5.5,59.8,5.5,59.8c3.5,14.6,4.9,43.8,4.9,43.8c-2.3,12.1,0,26,0,26c-3.5,7.7,0,18.6,0,18.6c-5,6.8-1.5,14.5-1.5,14.5
			c-0.9,5.9,0,14.2,0,14.2l-2.7,18c-8.4,6.9-8.6,15.9-8.6,15.9c-3.1,3.5-2.7,7.5-2.7,7.5c-10.6,5.3-18.1,26.1-18.1,26.1
			c-7.3,9.1-15.8,30.3-15.8,30.3c-3.4,3.5,0.9,8.2,0.9,8.2l3.5,5.5c-12,19.7,3.8,19.7,3.8,19.7c20.4,1.5,13.5-12,13.5-12
			c5.8,0.2,11.1-12.6,11.1-12.6c21.7-16.2,31.1-38.3,31.1-38.3l10.6-13.3c18.3-21.2,18.3-59,18.3-59c5.5-12.8,7.4-33.9,7.4-33.9
			c3.4,8.4,15,26.8,15,26.8c-0.2,11.5,5.1,17.5,5.1,17.5c0.9,5.3,1.2,10.6,1.2,10.6c-0.3,5.9,1.8,14,1.8,14
			c-4.3,21.5,10.3,22.7,10.3,22.7l8.2,20.6c8.6,21.2,7.1,31.2,7.1,31.2c-5.5,16.4,1.1,19.3,1.1,19.3c4.6,2.7,6.6,6.2,6.6,6.2
			c2,7.5,5.8,5.8,7.1,6.2c1.3,0.4,9.3,0,9.3,0C1256.7,450,1249,440.3,1249,440.3z M1205.1,136.6c-7.2-6.4-10.9-16.5-10.9-16.5
			c3.4,6.3,7.8,7.4,7.8,7.4c6.5,1.8,9.6,10.4,9.6,10.4c0.3-9.3-4.7-12.5-4.7-12.5c-7.5-3.9-12.7-14.5-12.7-14.5
			c4.1,4.1,11.5,2.7,11.5,2.7c5.2-1.5,6.1,1,6.1,1c1.1,2.7,2.4,7.3,2.4,7.3c1.8,14.4-8,42.9-8,42.9c-0.2-4.9-7.3-11.7-7.3-11.7
			c1-6.3-2.4-18.4-4-23.7c-0.3-0.8-0.6-1.7-0.8-2.6c0,0,0.3,1,0.8,2.6c2.2,5.4,6.8,9.3,6.8,9.3c5.3,5.8,4.9,16.7,4.9,16.7
			C1210.8,145,1205.1,136.6,1205.1,136.6z"/>
		<path d="M405.1,612.8l-0.4-4.6c0-3.4-2.6-4.9-2.6-4.9c-0.8-3.5-3.1-3.6-3.1-3.6c0.4-1.5-2.7-2.7-2.7-2.7c-0.1-1.6-2-2.3-2-2.3
			c0.8-3.5-1.6-2.8-1.6-2.8l-6.7,3.1c-3.2,2.3-3.2,8.6-3.2,8.6c0.7,5.2,1.4,11.7,1.4,11.7c-3.8,15.5-22.3,34.3-22.3,34.3
			c-14.8-8-12-45.8-12-45.8c0.9-26.1-12-38.9-12-38.9c-10.3-19.4-33.7-8.7-33.7-8.7c-7.3-0.2-10.3,6.3-10.3,6.3
			c-6.8,3.3-8.1,9.4-8.1,9.4l-4.7,5.8c-9.9,2.8-11.7,15.5-11.7,15.5c-0.5-5.8-12.7-20.7-12.7-20.7l-4.5-17.4
			c-3-8.6,1.9-14.1,1.9-14.1l18-21.1c8.3-11.9,17.9-6.4,17.9-6.4c11.7,3.4,13-2.2,13-2.2c3-5-1.7-7.7-1.7-7.7
			c-1.7-1.4-2.3-6.9-2.3-6.9c-1.3-4.5-5.8-2.4-5.8-2.4l-6.1,0c-8.1-0.3-14.3,8.1-14.3,8.1c-16.9,11.4-34.6,28.2-34.6,28.2
			c-8.5,4.7-5.8,11.3-5.8,11.3l1.4,10.8c2.8,25.7,14.1,52.4,14.1,52.4c3.8,8.2-4.9,18.3-4.9,18.3c-27.7,16.9-9.6,37.4-9.6,37.4
			c-0.5,14.8-1.6,50.6-1.6,50.6c-0.9,4.1-0.2,5.8-0.2,5.8c-0.6,5-7.2,4.4-7.2,4.4c-45.4-1.9-51.4,13.5-51.4,13.5
			c-7.5,18.5,11.2,32.4,11.2,32.4c11,14.1,51,36.5,51,36.5c-1.8,3.9,0,4.8,0,4.8c11.7,8.2,13.6,26.2,13.6,26.2
			c0.6,11.3,3.1,20.2,3.1,20.2c4.2,9.1,11.9,2.7,11.9,2.7c10.7-9.1,7.5-24.4,7.5-24.4c-3.5-12,2.1-18.8,2.1-18.8l5.6,14.1
			c1.9,11,12,21.5,12,21.5c0.6,5.1,3.8,11.2,3.8,11.2c6.1,25.1,8.5,49.8,8.5,49.8c-5,3.1-3.9,11.6-3.9,11.6l-1.9,9.9
			c-1.6,8.6-9.4,16.4-9.4,16.4c-8.6,11.3,6.3,10.2,6.3,10.2c21.9-0.3,22.4-6.6,22.4-6.6c2.3-5.3,6.3-7,6.3-7
			c12.5-3.3,6.7-14.9,6.7-14.9l-3.6-10.3c0.9-9.7-5.3-11.6-5.3-11.6c6.3-51.7-7.2-69.8-7.2-69.8c-7.5-13.2-6.8-29.4-6.8-29.4
			c1.6-18.6,0.5-46.5,0.5-46.5c5.6-23.5-5-45.1-5-45.1c-2.1-7.5-9.9-16.6-9.9-16.6c0.9-8.6-4.2-20.4-4.2-20.4c1-5,0-8.5,0-8.5
			c-0.9-10.3,8.1-13.3,8.1-13.3c-4.1,15.7,5,28,5,28c-1.7-5.2,0.2-12.2,0.2-12.2c-0.5,8.8,7.5,16.1,7.5,16.1
			c-2.5-13,0.5-16.3,0.5-16.3c-1.3,4.4,3.6,14.4,3.6,14.4c-4.4,8.9,0.5,13.5,0.5,13.5c-1.9,7.4,6,8.9,6,8.9
			c4.5,15.4,15.7,16.6,15.7,16.6c-12.7-6.3-10.3-23.3-10.3-23.3c1.6,9.1,13.5,12.1,13.5,12.1c-11.4-6.4-6-21-6-21
			c0,9.7,7.2,13.6,7.2,13.6c-7.8-15.7,1.1-25.8,1.1-25.8c1.3,4.9,4.7,7.5,4.7,7.5c5.5,6,0.3,16.6,0.3,16.6
			c9.7-8.4,7.3-14.9,6.4-16.6c5.4,9.3,14.9,2.9,14.9,2.9c-15.7,0-7.5-12.1-7.5-12.1c4.9,9.8,14.9,4.1,14.9,4.1
			c-8.7,2.3-11.2-3.8-11.2-3.8c-1.4-3.3,2.2-6.9,2.2-6.9c12.5-20.2,33-52.1,33-52.1C407,617,405.1,612.8,405.1,612.8z M258.4,795.4
			l-5.3-4.9c-2.1-4.2-6.9,0-6.9,0l-18.3-23.8l15.4,2.8c10.5,6.9,14.4-2.8,14.4-2.8c2.7,12.7,9.6,32.7,9.6,32.7
			C265.3,797.2,258.4,795.4,258.4,795.4z"/>
		<path d="M579.2,799.2c0,0-20.4,23.3-27.8,36.1c0,0-1,4,1.3,8.4c0,0,6.1,19.3,1,39.4c0,0-2.6,18.4-0.5,27.8l1.4,0.5
			c0,0,4.4-0.7,3.1,8.1c0,0,0.2,6.5,1.7,10.3c0,0,1.2,3.3,1,5.9c0,0,3.9,7.5-5.9,10.3c0,0-19.3,2.1-28.6,6c0,0-15.7,5.4-26.7,0
			c0,0-8.2-4.6,11-12.5c0,0,13.3-7,16.2-14.6c0,0,4.4-7.6,3.8-15.1c0,0-0.6-2.8,3.4-1.9c0,0-7.8-43.6-8.9-63.7c0,0-5.8-15,0.8-23.7
			c0,0,17.2-48.8,27.6-60.4l12.1-18.7c0,0-0.4-2.9,1-4.1c0,0-10.2-50.4-12.5-64.6c0,0-6.4-5.8-8.7-16.7l-15.6,20.6
			c0,0-4.5,7.9-10,7.9c0,0-21.4,7.7-55.4,12.7c0,0-10.3,2.9-12.7,6c0,0-4.2,5.4-8.2,1.2c0,0-3.4-2.7-4.6-5.6c0,0-7.7-1-7.7-4.9
			c0,0-5.9-1.7,0-4.2l4.7-2.5c0,0,6.2-4,22.6-2.3c0,0,8.8,1.3,15.2-1.6l19.7-8.5c0,0,14.1-6.4,20.9-8.8c0,0,12.4-21,19.2-27.8
			c0,0,5.1-10.9,9.9-24.9c0,0,3.9-14.2,28-12.1c0,0,11.6-8,11.1-31.1c0,0,3.6-36,36.9-28.3c0,0,19.1,3.4,21,26.3
			c0,0,13.6,12.6,10.7,37.4c0,0,0.2,11.9,7.9,17.7c0,0,11.6,9.5,1.9,22.1c0,0,5.1-11.4-5.8-16.3c0,0,5.4,9.1-0.5,25.6
			c0,0-3.1,10.5,5.2,9.7c0,0-4.1,2.4-7.5-0.6c0,0-1.8,4.8-4.1,6.5c0,0-1,7.2-6.9,10.4c0,0,1.6,7,4.7,9.4c0,0,23.2,21.6,41,25
			c0,0,7.6-1.2,10.3-1.1l8.1,0.6c0,0,3.5,1,4.5,2.8c0,0,3.9,3.5-2.2,3.3c0,0,2.8,4.5-2.3,6.6c0,0,0.3,3.1-3.5,4.3
			c0,0-0.2,4.1-5.1,3.3c0,0-3.5,2.6-13.3-2.2c0,0-35.7-18.9-48.2-25.5c0,0-10.6-5-11.3-15.6l-2.8-12c0,0-3.4-0.2-8.2-4.7
			c0,0,0.6,2.8-0.2,5.4c0,0,7.2,11.5,7.2,17.1c0,0,26.2,32,20.6,53.7l-5.7,18.5c0,0-0.7,1.3-2.6,1.3c0,0-8.9,25.6-19.7,45.6
			c0,0-11.1,16.7,3.6,24.9c0,0,16.7,8,26.3,30.7c0,0,11.3,26,18.6,25.2c0,0,1.2-3.5,9.5,0.4c0,0,18.1,1.8,15.7,17.1
			c0,0-2.9,14.5-2.8,24.3c0,0,0.7,19.6-19.9,20c0,0-14.7,2.4-12.1-7.2c0,0,1.6-4.2,6.2-6.5c0,0-2.5-3-1.9-5.1l-5.2-17.3
			c0,0-11.2-5.9-5.6-9.2c0,0-14.7-22.5-45-48.3c0,0-27.4-18.6-22.3-35.3C577.7,830.3,576.7,806.3,579.2,799.2z"/>
		<path d="M874.4,762.5c0,0-8,11-7.3,50.7c0,0,0,15.8-9,22.1c0,0-1.3,8-14.5,15.8c0,0-7,5.3-12.5,12.8c0,0-6.3,10.8-25,23.5
			c0,0-23.3,19-21.8,32.3c0,0,5.8-0.7,3.9,10.7c0,0-3.7,10.7,10.7,17.3c0,0,11.2,3.3,0.7,10.5c0,0-12.5,3.2-26.3,0
			c0,0-8.3-3.7-15.8-22.3c0,0-13.8-17.8-3-25.5c0,0,6.7-5.8,10.5-5.3l25.5-33.7c0,0,10.9-24.9,30.9-32.9c0,0,10.8-3.3,10.8-19.5
			l-2.3-50.3c0,0-5.5-30.3-0.5-50.5c0,0-2.3-3.3-0.5-7c0,0-1.1-2.3,0.6-7c0,0,2.4-9.8,5.3-15.4c0,0,4.1-13.1-6.1-42.1
			c0,0-2.6-3.5-4.9,4.1l-7.3,21.4c0,0-2.5,7.8-4.1,11c0,0-2.1,11.5-6.1,20.3c0,0-9.3,20.5-5.2,35.5c0,0,1.7,9.7-0.2,14.5
			c0,0-2.8,5.7-0.2,11c0,0-3.2,1.6-5.4-4.1c0,0-1.3-4.4-0.3-8.3c0,0,0.8-4-3.8,0.3l-4.7,5.8c0,0-1.3,3.3-0.1,6.8
			c0,0,1.5,2.3,1.2,4.9c-0.1,1.1-1.4,1.7-2.3,1c-0.8-0.6-1.7-1.7-2.7-4.1c0,0-2.9-4.8-0.3-10.1l-2.6,3.4c-0.7,0.8-1.1,1.9-1.1,2.9
			l-0.2,3.1c0,0,0.9,5.7-3,6.3c0,0-2.1,0-0.8-3.9c0,0-1.6,2.6-4.4,1.6c0,0-1.6-0.8,1.2-4.6c0,0,1.3-3.6,1.5-7.8c0,0-0.2-4.3,7-9.3
			c0,0,7.6-7.7,7.4-10.3c0,0,0.1-6.3,1.4-10.7c0,0,0.2-39,8.5-57c0,0,7.7-25.3,9-36.3c0,0,7-36.3,28.3-42c0,0,11.2-7.2,20-9.8
			c0,0,15.2-6.1,22.2-17.8c0,0,13.3-40.5,38.3-31.8l2.3,0.8c0,0,7.5-15.3,26.5-21.5c0,0,19.5-7.3,15.3-22.3c0,0,6.3,8.3,2,14.5
			c0,0,35.9-9.4,43.3-27.8c0,0-2,11.3-12.2,19.8c0,0,9-6,13-14.2c0,0-2.7,14-11.8,19.5c0,0,11-6,16.7-18.7c0,0-4,17.3-15.5,24.5
			c0,0,16.5,0.2,19.5-11.5c0,0-0.7,13.3-18.3,19c0,0,18.7-1.3,22.3-4.8c0,0-8.2,10.7-23.5,11c0,0-16,17.5-42.2,18.5
			c-4.5,0.2-8.9-0.4-13.2-1.7c-4.1-1.3-10.8-2.6-16.1-0.6c0,0,22.8,20.7,4.6,39.4l-9.4,8.6l-10.1,7c0,0,6.3,5.6,5.1,19.5l8.2,22.8
			c0,0,16,3.7,22,5.7c0,0,29.8,7.3,35.7-0.2c0,0,5.2-7.9,5.4-8.7c0.2-0.8,3.3-10.8,3.3-10.8s1.4-3.5,2.8,0.3c0,0,1.8-4.2,2.4-8.5
			c0,0,1.9-5.3,2.6,1.9c0,0,4.3-6.9,4.8-2.8c0,0,1.8,1.6-0.5,4.8l-6.8,14.1c0,0-3.6,7,1.9,3.6l4.9-5.1c0,0,3.5-1.8,2.1,3.1
			c0,0-0.9,2.3-4.7,5.3c0,0-2.5,1.7-4.3,4.2c-4.2,5.8-10.7,9.6-17.9,10c-0.2,0-0.4,0-0.6,0l-32.9,4.3c0,0-27,2.8-30.3-4.9
			c0,0-9.4,15,1.1,49.3c0,0,3.5,7.3,1.3,12.5l15,38.8c0,0,1.9,2,0.6,4.4c0,0,7.4,21.6,10.6,51.9c0,0,5.3,12,6.3,21.5
			c0,0,12.9,16.9,17.6,52.9l4.9,24.8c0,0,6,0.5,6.8,8.5c0,0,21,15,17.3,25.3c0,0,0.3,5.3-27.5,1c0,0-2.9-0.1-5.3-4.9
			c0,0-9-0.7-5.8-10.3c0,0,0.7-7.2,2.3-10.8l-0.3-7.3l-15.3-32.5c0,0-13.7-19.7-11.7-35.3c0,0-14.3-17.3-18-32.3
			c0,0-17-23.3-22.7-33.3c0,0-6.8,1.3-7.3-5.5C880.7,769.3,878,757.5,874.4,762.5z"/>
		<path d="M1114.4,756.3c0,0-6.4,21.4-3,63.3c0,0,1,11.8-2.2,19.7c0,0-3,4.4-1.5,21.7c0,0,2,10.6-3,28.1c0,0-5.6,19.4-0.7,34.6
			c0,0,3.9,6.4,2.5,18.4c0,0-0.3,4.1,1.7,9.9c0,0,5.7,6.2-10,7.4c0,0-14.1,1-14.9-3.4c0,0-2.4-0.3,1.3-15.1c0.3-1.3,3-16.4,3-16.4
			s-1.7-25.1-5-40.1c0,0-6.1-30.2-1.4-52.9c0,0,1.4-16.5-1.8-28.3l-10.4-43.9c0,0-10.5-33.2,13.8-67.6c0,0,17.8-14.5,19.8-32.8
			v-10.8c0,0-6.6-5.9-7.4-15c0,0-4.7,5-8.5,5.5c0,0-5.2,5.9,1.8,17.5c0,0-10.3-8.7-4.2-23c0,0-5,2.5-5.9,7.3c0,0-0.6-10.1,9.5-15.9
			c0,0-2.5-1.2-8,1.5c0,0,2.3-7.8,8-10.1l-5.3-3.8c0,0-29.2-16.6-42-38.7c0,0-8.7-8,0-20.5c0,0,16.9-33.8,33.3-49.3
			c0,0,3.1-7.7,8.2-9c0,0,3.4-5.7,6.2-5.7c0,0,3,0,4.6,1.8c0,0,4.6,1.3,5.3,3c0,0,4.6,0.5,3.3,5.7c0,0-2,7.2-14.1,9.9
			c0,0-19.2,16.9-29.2,47.4c0,0-1.8,5.4,2.3,10.8c0,0,17.6,14,20.4,18.2c0,0,6.1,5.4,7.7-2c0,0-1.5-27.4,3.9-39
			c0,0,5.9-15.8,16.7-16.7c0,0,19.5-10.1,30,8.6c0,0,9.1,20.9,18,34c0,0,8.4,8.6,4.7,18c0,0,12.6-9.9,14-19.7c0,0,0.7-23.4,2.7-32
			c0,0-27.6-31-39.9-38.4c0,0-9.7,4.3-17.5-1.1c0,0-5.7-5.8-1.5-7.1c0,0,1.1-3.2,3-3.3c0,0,1.1-3,2.7-3.1c0,0,1.5-2.3,2.3-2.3
			c0,0,1.1-2.8,3.1-2.8c0,0,9.6-1.1,12.7,5.5c0,0,5.2,6.6,9.5,9.2l35.2,25c0,0,10.6,5.2,9.1,20.4c0,0,0.5,35.5-9.4,65.8
			c0,0-5.7,16.3-5.9,26.1c0,0,0,7.1-3.7,13.8c0,0-8.1,30.5-17.5,49c0,0-7.6,18.5,0.7,38.9c0,0,13.7,37.2,23.6,71l3.5,16.2
			c0,0,3.9,11.1,4.2,18.7c0,0,10.3,25.9,12.6,72.5c0,0,0.8,5.3,3.9,7.9c0,0,3.3-5.1,6.4,4.9c0,0,2,13.5,15.1,20.9
			c0,0,6.9,4.8,2.5,8.4c0,0-11.2,4.1-23.8-0.5c0,0-3-4.1-11.8-4.1c0,0-11.7,0-10.8-5.7c0,0-0.3-11.7,3.4-17.1c0,0,3.4-6.2,0.5-13.5
			c0,0-9.2-20.5-13.6-27.7c0,0-7.1-15.1-7.3-33.6c0,0-18.5-34-26.4-52.2C1143.8,798.2,1116.8,743.6,1114.4,756.3z"/>
	</g>
</g>
</svg>
